name C:\Users\antoi\Documents\MyRepositories\upper-imu-dc\Results\main_tracking\Case_99\kinematics.mot
datacolumns 43
datarows 6
range 1.30000000 1.40000000
endheader 
time	clav_prot	clav_elev	scapula_abduction	scapula_elevation	scapula_upward_rot	scapula_winging	plane_elv	shoulder_elv	axial_rot	TrapeziusScapula_M/activation	TrapeziusScapula_S/activation	TrapeziusScapula_I/activation	TrapeziusClavicle_S/activation	SerratusAnterior_I/activation	SerratusAnterior_M/activation	SerratusAnterior_S/activation	Rhomboideus_S/activation	Rhomboideus_I/activation	LevatorScapulae/activation	Coracobrachialis/activation	DeltoideusClavicle_A/activation	DeltoideusScapula_P/activation	DeltoideusScapula_M/activation	LatissimusDorsi_S/activation	LatissimusDorsi_M/activation	LatissimusDorsi_I/activation	PectoralisMajorClavicle_S/activation	PectoralisMajorThorax_I/activation	PectoralisMajorThorax_M/activation	TeresMajor/activation	Infraspinatus_I/activation	Infraspinatus_S/activation	PectoralisMinor/activation	TeresMinor/activation	Subscapularis_S/activation	Subscapularis_M/activation	Subscapularis_I/activation	Supraspinatus_P/activation	Supraspinatus_A/activation	TRIlong/activation	BIC_long/activation	BIC_brevis/activation	
          1.30000000	        -22.92846821	         -1.99668273	        -12.91730761	         -2.65698515	         14.39527610	          4.37967529	          1.73600235	         18.84511813	         35.88727840	          0.03398203	          0.04261965	          0.01420449	          0.07811378	          0.04020095	          0.08948192	          0.05596411	          0.07134688	          0.08575117	          0.11409843	          0.04452912	          0.03330001	          0.10853091	          0.07682759	          0.05054267	          0.05062399	          0.05690319	          0.04871531	          0.04969944	          0.05104291	          0.11806686	          0.01000000	          0.01808218	          0.04774084	          0.01875538	          0.10499984	          0.10102799	          0.12394503	          0.06228874	          0.07339066	          0.10938981	          0.05891736	          0.04256852	
          1.32000000	        -22.91501121	         -1.83265251	        -12.78530767	         -2.59963725	         14.65702359	          4.26759179	          2.58250088	         18.80254044	         35.79145697	          0.03355010	          0.04230900	          0.01337129	          0.07825958	          0.03967702	          0.09029950	          0.05593835	          0.07172704	          0.08628489	          0.11415783	          0.04372283	          0.03244258	          0.10852990	          0.07834255	          0.05050277	          0.05067809	          0.05697425	          0.04818730	          0.04971892	          0.05064605	          0.11982556	          0.01000000	          0.01676556	          0.04758670	          0.01672962	          0.10637447	          0.10186439	          0.12531019	          0.06254464	          0.07501477	          0.10992203	          0.05970592	          0.04185022	
          1.34000000	        -22.89482515	         -1.68404514	        -12.66988072	         -2.53915188	         14.86361175	          4.17443359	          3.37784347	         18.77819604	         35.70362727	          0.03300108	          0.04178599	          0.01250639	          0.07842280	          0.03911972	          0.09098524	          0.05590195	          0.07208512	          0.08680594	          0.11417174	          0.04295938	          0.03175458	          0.10821798	          0.07994878	          0.05044217	          0.05068209	          0.05705079	          0.04775817	          0.04985744	          0.05037964	          0.12132836	          0.01000000	          0.01568977	          0.04753312	          0.01484350	          0.10760400	          0.10254169	          0.12642183	          0.06284877	          0.07673129	          0.11015269	          0.06061399	          0.04120047	
          1.36000000	        -22.84569307	         -1.55486461	        -12.53741582	         -2.47474833	         15.00518478	          4.10337274	          4.10610732	         18.78461229	         35.62217051	          0.03225400	          0.04045644	          0.01169598	          0.07840430	          0.03889414	          0.09172556	          0.05600689	          0.07235837	          0.08729312	          0.11419028	          0.04239679	          0.03148354	          0.10730541	          0.08139349	          0.05039412	          0.05074451	          0.05715741	          0.04762363	          0.05013735	          0.05066347	          0.12225558	          0.01000001	          0.01498674	          0.04723038	          0.01339112	          0.10855754	          0.10296422	          0.12709911	          0.06319513	          0.07843734	          0.10974091	          0.06164198	          0.04079108	
          1.38000000	        -22.78913872	         -1.44548311	        -12.42905902	         -2.40650322	         15.07572252	          4.05646418	          4.75596796	         18.83177357	         35.53993604	          0.03140454	          0.03971081	          0.01057835	          0.07864870	          0.03813582	          0.09217301	          0.05596957	          0.07263144	          0.08746206	          0.11406836	          0.04166143	          0.03108803	          0.10681092	          0.08332019	          0.05025354	          0.05060422	          0.05723528	          0.04731489	          0.05047927	          0.05062662	          0.12316710	          0.01000000	          0.01440660	          0.04746688	          0.01201323	          0.10940163	          0.10333735	          0.12775391	          0.06349763	          0.07996689	          0.10947353	          0.06250052	          0.04017619	
          1.40000000	        -22.71375916	         -1.35891148	        -12.32259726	         -2.33668456	         15.07775409	          4.03340218	          5.32515742	         18.92058698	         35.46041009	          0.03071324	          0.03844239	          0.01000000	          0.07863501	          0.03791519	          0.09262005	          0.05606830	          0.07287038	          0.08801966	          0.11399530	          0.04110595	          0.03101710	          0.10578203	          0.08504888	          0.05018169	          0.05056437	          0.05734447	          0.04725432	          0.05084227	          0.05104312	          0.12356270	          0.01000000	          0.01409389	          0.04728817	          0.01095310	          0.11003471	          0.10351732	          0.12806588	          0.06381817	          0.08145594	          0.10866102	          0.06345949	          0.03978286	
